<?xml version="1.0" encoding="iso-8859-1"?>
<!-- Generator: Adobe Illustrator 19.0.0, SVG Export Plug-In . SVG Version: 6.00 Build 0)  -->
<svg version="1.1" id="Layer_1" xmlns="http://www.w3.org/2000/svg" xmlns:xlink="http://www.w3.org/1999/xlink" x="0px" y="0px"
	 viewBox="0 0 512 512" style="enable-background:new 0 0 512 512;" xml:space="preserve">
<g>
	<path style="fill:#E4EAF6;" d="M25.6,68.267c-14.139,0-25.6,11.461-25.6,25.6v8.533h34.133V68.267H25.6z"/>
	<path style="fill:#E4EAF6;" d="M512,93.867c0-14.139-11.461-25.6-25.6-25.6h-8.533V102.4H512V93.867z"/>
	<rect x="34.133" y="102.4" style="fill:#E4EAF6;" width="34.133" height="34.133"/>
	<rect x="68.267" y="68.267" style="fill:#E4EAF6;" width="34.133" height="34.133"/>
	<rect x="102.4" y="102.4" style="fill:#E4EAF6;" width="34.133" height="34.133"/>
	<rect x="136.533" y="68.267" style="fill:#E4EAF6;" width="34.133" height="34.133"/>
	<rect x="170.667" y="102.4" style="fill:#E4EAF6;" width="34.133" height="34.133"/>
	<rect x="204.8" y="68.267" style="fill:#E4EAF6;" width="34.133" height="34.133"/>
	<rect x="238.933" y="102.4" style="fill:#E4EAF6;" width="34.133" height="34.133"/>
	<rect x="273.067" y="68.267" style="fill:#E4EAF6;" width="34.133" height="34.133"/>
	<rect x="307.2" y="102.4" style="fill:#E4EAF6;" width="34.133" height="34.133"/>
	<rect x="341.333" y="68.267" style="fill:#E4EAF6;" width="34.133" height="34.133"/>
	<rect x="375.467" y="102.4" style="fill:#E4EAF6;" width="34.133" height="34.133"/>
	<rect x="409.6" y="68.267" style="fill:#E4EAF6;" width="34.133" height="34.133"/>
	<rect x="443.733" y="102.4" style="fill:#E4EAF6;" width="34.133" height="34.133"/>
	<rect y="204.8" style="fill:#E4EAF6;" width="34.133" height="34.133"/>
	<rect x="34.133" y="238.933" style="fill:#E4EAF6;" width="34.133" height="34.133"/>
	<rect x="68.267" y="204.8" style="fill:#E4EAF6;" width="34.133" height="34.133"/>
	<path style="fill:#E4EAF6;" d="M102.4,256l9.998-9.998c3.063-3.063,6.566-5.413,10.304-7.069H102.4V256z"/>
	<path style="fill:#E4EAF6;" d="M170.667,204.8h-34.133v31.205c4.721,0,9.438,0.982,13.831,2.928h20.302V204.8z"/>
	<polygon style="fill:#E4EAF6;" points="204.8,238.933 170.667,238.933 170.667,256 187.733,273.067 204.8,273.067 	"/>
	<path style="fill:#E4EAF6;" d="M216.368,204.8H204.8v34.133h34.133v-25.6C230.281,213.333,222.385,210.107,216.368,204.8z"/>
	<polygon style="fill:#E4EAF6;" points="238.933,238.933 238.933,273.067 264.533,273.067 273.067,264.533 273.067,238.933 	"/>
	<polygon style="fill:#E4EAF6;" points="273.067,204.8 273.067,238.933 298.667,238.933 307.2,230.4 307.2,204.8 	"/>
	<polygon style="fill:#E4EAF6;" points="443.733,230.4 443.733,204.8 418.133,204.8 	"/>
	<rect x="477.867" y="204.8" style="fill:#E4EAF6;" width="34.133" height="34.133"/>
	<polygon style="fill:#E4EAF6;" points="477.867,264.533 477.867,238.933 452.267,238.933 	"/>
	<rect y="273.067" style="fill:#E4EAF6;" width="34.133" height="34.133"/>
	<polygon style="fill:#E4EAF6;" points="34.133,307.2 34.133,324.267 51.2,307.2 	"/>
	<polygon style="fill:#E4EAF6;" points="68.267,290.133 85.333,273.067 68.267,273.067 	"/>
	<polygon style="fill:#E4EAF6;" points="204.8,273.067 204.8,290.133 221.867,307.2 230.4,307.2 238.933,298.667 238.933,273.067 	
		"/>
	<rect y="136.533" style="fill:#E4EAF6;" width="34.133" height="34.133"/>
	<rect x="34.133" y="170.667" style="fill:#E4EAF6;" width="34.133" height="34.133"/>
	<rect x="68.267" y="136.533" style="fill:#E4EAF6;" width="34.133" height="34.133"/>
	<rect x="102.4" y="170.667" style="fill:#E4EAF6;" width="34.133" height="34.133"/>
	<rect x="136.533" y="136.533" style="fill:#E4EAF6;" width="34.133" height="34.133"/>
	<polygon style="fill:#E4EAF6;" points="204.8,179.2 204.8,170.667 170.667,170.667 170.667,204.8 204.8,204.8 	"/>
	<path style="fill:#E4EAF6;" d="M205.875,170.667c3.789-14.722,17.153-25.6,33.058-25.6v-8.533H204.8v34.133H205.875z"/>
	<path style="fill:#E4EAF6;" d="M261.499,204.8h11.568v-25.6C273.067,189.398,268.589,198.545,261.499,204.8z"/>
	<path style="fill:#E4EAF6;" d="M273.067,170.667h-1.075c0.702,2.727,1.075,5.587,1.075,8.533V170.667z"/>
	<rect x="273.067" y="136.533" style="fill:#E4EAF6;" width="34.133" height="34.133"/>
	<polygon style="fill:#E4EAF6;" points="307.2,170.667 307.2,204.8 332.8,204.8 341.333,196.267 341.333,170.667 	"/>
	<rect x="341.333" y="136.533" style="fill:#E4EAF6;" width="34.133" height="34.133"/>
	<path style="fill:#E4EAF6;" d="M375.467,170.667v5.605c8.735,0,17.471,3.332,24.135,9.998l9.998,9.997v-25.6H375.467z"/>
	<rect x="409.6" y="136.533" style="fill:#E4EAF6;" width="34.133" height="34.133"/>
	<rect x="477.867" y="136.533" style="fill:#E4EAF6;" width="34.133" height="34.133"/>
	<rect x="443.733" y="170.667" style="fill:#E4EAF6;" width="34.133" height="34.133"/>
</g>
<path style="fill:#FFDC69;" d="M216.368,204.8c6.016,5.307,13.911,8.533,22.565,8.533c8.654,0,16.548-3.227,22.565-8.533
	c7.09-6.255,11.568-15.402,11.568-25.6c0-2.946-0.373-5.806-1.075-8.533c-3.789-14.722-17.153-25.6-33.058-25.6
	s-29.268,10.878-33.058,25.6c-0.702,2.727-1.075,5.587-1.075,8.533C204.8,189.398,209.278,198.545,216.368,204.8z"/>
<path style="fill:#B4EBBE;" d="M443.733,230.4l-25.6-25.6l-8.533-8.533l-9.998-9.998c-6.665-6.666-15.401-9.998-24.135-9.998
	c-8.735,0-17.471,3.332-24.135,9.998l-9.998,9.998L332.8,204.8l-25.6,25.6l-8.533,8.533l-25.6,25.6l-8.533,8.533l-25.6,25.6
	L230.4,307.2l-4.267,4.267L358.4,443.733h128c14.139,0,25.6-11.461,25.6-25.6V298.667l-34.133-34.133l-25.6-25.6L443.733,230.4z"/>
<path style="fill:#A0D778;" d="M226.133,311.467l-4.267-4.267L204.8,290.133l-17.067-17.067L170.667,256l-9.998-9.998
	c-3.063-3.063-6.566-5.413-10.304-7.069c-4.394-1.947-9.111-2.928-13.831-2.928c-4.72,0-9.438,0.982-13.831,2.928
	c-3.738,1.655-7.241,4.005-10.304,7.069L102.4,256l-17.067,17.067l-17.067,17.067L51.2,307.2l-17.067,17.067L0,358.4v59.733
	c0,14.139,11.461,25.6,25.6,25.6h185.295H358.4L226.133,311.467z"/>
<g>
</g>
<g>
</g>
<g>
</g>
<g>
</g>
<g>
</g>
<g>
</g>
<g>
</g>
<g>
</g>
<g>
</g>
<g>
</g>
<g>
</g>
<g>
</g>
<g>
</g>
<g>
</g>
<g>
</g>
</svg>
